/* XPM */
static char *collectable1730747684[] = {
/* columns rows colors chars-per-pixel */
"32 32 3 1 ",
"  c black",
". c #FF000D",
"X c white",
/* pixels */
"                                ",
"                                ",
"                                ",
"                                ",
"                                ",
"                                ",
"                                ",
"                                ",
"            ......              ",
"           ..X.........         ",
"         .........X.....        ",
"        .............X...       ",
"       ...X...X...........      ",
"       .............X......     ",
"      ........X..X.....X....    ",
"      ..X..X................    ",
"      ................X..X.     ",
"      ......X.....X........     ",
"       ........X.....X....      ",
"       ..........X.....X.       ",
"        .................       ",
"             XXXXXX             ",
"             XXXXXX             ",
"             XXXXXX             ",
"             XXXXXX             ",
"             XXXXXX             ",
"             XXXXXX             ",
"             XXXXXX             ",
"                                ",
"                                ",
"                                ",
"                                "
};
