/* XPM */
static char *exit_closed1730747683[] = {
/* columns rows colors chars-per-pixel */
"32 32 2 1 ",
"  c black",
". c #B4B4B4",
/* pixels */
"                                ",
"                                ",
"           .............        ",
"          ..............        ",
"         .................      ",
"       ....................     ",
"       ....................     ",
"      .....................     ",
"      .....................     ",
"      .....................     ",
"     ......................     ",
"     ......................     ",
"     ......................     ",
"     ......................     ",
"     ......................     ",
"     ......................     ",
"     ......................     ",
"     ......................     ",
"     ......................     ",
"     ......................     ",
"     ......................     ",
"     ......................     ",
"     .....................      ",
"     .....................      ",
"     ....................       ",
"     ...................        ",
"      .................         ",
"        ..............          ",
"                                ",
"                                ",
"                                ",
"                                "
};
