/* XPM */
static char *ghost_left1730747684[] = {
/* columns rows colors chars-per-pixel */
"32 32 3 1 ",
"  c black",
". c magenta",
"X c white",
/* pixels */
"                                ",
"                                ",
"                                ",
"                                ",
"                                ",
"                                ",
"         ........               ",
"       ............             ",
"      ..............            ",
"      ................          ",
"      ..XXXX...XXXXX..          ",
"      ..  XX...XXXXX...         ",
"      ..  XX...  XXX...         ",
"      ..XXXX...  XXX...         ",
"     ...XXXX...XXXXX....        ",
"     ...XXXX...XXXXX.....       ",
"     ..........XXXX......       ",
"     ....................       ",
"     ....................       ",
"     ....................       ",
"     ....................       ",
"      ..................        ",
"      ..................        ",
"      ..................        ",
"       .................        ",
"       .................        ",
"         ..............         ",
"         ......  .....          ",
"           ...    ....          ",
"                                ",
"                                ",
"                                "
};
