/* XPM */
static char *ghost_down1730747684[] = {
/* columns rows colors chars-per-pixel */
"32 32 3 1 ",
"  c black",
". c magenta",
"X c white",
/* pixels */
"                                ",
"                                ",
"                                ",
"                                ",
"          ......                ",
"         .........              ",
"        ............            ",
"        .............           ",
"       .XXXX....XXX...          ",
"      .XXXXX....XXXX..          ",
"      .XXXXX....XXXX...         ",
"      .XX  X....X  X...         ",
"      ...  ......  ....         ",
"      ................          ",
"      ................          ",
"     .................          ",
"     ..................         ",
"     ..................         ",
"     ..................         ",
"     ..................         ",
"     ..................         ",
"     ..................         ",
"     ..................         ",
"      ................          ",
"       . ..   .... ...          ",
"               .    .           ",
"                                ",
"                                ",
"                                ",
"                                ",
"                                ",
"                                "
};
