/* XPM */
static char *player_left1730747685[] = {
/* columns rows colors chars-per-pixel */
"32 32 2 1 ",
"  c black",
". c #FFF200",
/* pixels */
"                                ",
"          ....                  ",
"         ...........            ",
"       .................        ",
"      ....................      ",
"     ......................     ",
"     ......................     ",
"     .......................    ",
"    ........................    ",
"    ........................    ",
"        ....................    ",
"                ............    ",
"                ............    ",
"                ............    ",
"                ............    ",
"                ............    ",
"                ............    ",
"                ...........     ",
"               ............     ",
"             ..............     ",
"            ..............      ",
"          ................      ",
"        .................       ",
"      ..................        ",
"       .................        ",
"         .............          ",
"         .............          ",
"            ........            ",
"            .....               ",
"                                ",
"                                ",
"                                "
};
