/* XPM */
static char *tile_soft_contrast1730747686[] = {
/* columns rows colors chars-per-pixel */
"32 32 3 1 ",
"  c #2F3699",
". c #546D8E",
"X c #709AD1",
/* pixels */
"................................",
"...........X............X.......",
"...X...... .........X........X..",
"...... ................... .....",
"............X...................",
"..X.....X...... ..X..... .......",
"...........................X....",
".................X...X..... ....",
"............ ......... .........",
".... .. ................... ....",
"...X........ ...................",
"................X.. ..... ......",
".... . .... .... ......X... . ..",
"............ ...................",
"......X...........X......X......",
"..X................. ...........",
"......... ....... ..........X...",
".............X..................",
"..........X.........X.. ........",
"....... ....... ................",
".....X...... ............X......",
"..X..............X..............",
"........ ...........X....... ...",
".............X..................",
"..... ...X.......X.....X........",
"................................",
".............. .............X...",
"..X.... ........................",
".....................X.X........",
".....X.. .X....X................",
".................. ........ ....",
"................................"
};
