/* XPM */
static char *tile_hard_contrast1730747686[] = {
/* columns rows colors chars-per-pixel */
"32 32 4 1 ",
"  c #2F3699",
". c #0006B8",
"X c #161CCC",
"o c #4D6DF3",
/* pixels */
"................................",
"............o................o..",
"...... ...................X.....",
".....o.......... ...o..X........",
"..o........o............. ..o...",
"................................",
"...................o.......X....",
"......o...............X.........",
".............o.X................",
".......... ............ ...o..XX",
"..o.. ............ ...........X.",
"..................X......X......",
"..........X.....................",
".X..............................",
".....o..o......o.......X..... ..",
".......................o........",
"..X. ........ ...X..............",
"........ ........... .....o.....",
"................................",
".............o...............o..",
"...o............................",
"................o....... .......",
"....... ...X.X.......X..........",
"................................",
"... ...X..........X...o.........",
"............................ ...",
".......X...o..... ..............",
".......X.............. .....X...",
".... ....o......................",
"......................X.........",
".............X..o.......... ....",
"................................"
};
