/* XPM */
static char *exit_open1730747684[] = {
/* columns rows colors chars-per-pixel */
"32 32 8 1 ",
"  c black",
". c #FF7E00",
"X c #FFF200",
"o c #546D8E",
"O c #161CCC",
"+ c #00B7EF",
"@ c #B4B4B4",
"# c #99D9EA",
/* pixels */
"                                ",
"                                ",
"           @@@@@@@@@@@@@        ",
"          @@@@@@@@@@@@@@        ",
"         @@@@OOOOOOOOO@@@@      ",
"       @@@@OOOOOOOOOOOOO@@@     ",
"       @@@OOOOOOOOOOOOOO@@@     ",
"      @@@OOOOoooooooooOO@@@     ",
"      @@OOOooooooooooooOO@@     ",
"      @@OOoooooXXXXXXooOO@@     ",
"     @@@OOooXXXXXXXXXooOO@@     ",
"     @@OOooXXXX#####XXoOO@@     ",
"     @@OOooXXX######XXoOO@@     ",
"     @@OOoXXX#.....#XXoOO@@     ",
"     @@OOoXXX#.++++.#XXOO@@     ",
"     @@OOoXXX#.+  +.#XXOO@@     ",
"     @@OOoXXX#.+  +.#XXOO@@     ",
"     @@OOooXX#.+++..#XXOO@@     ",
"     @@OOooXX##.....#XXOO@@     ",
"     @@OOooXXX######XooOO@@     ",
"     @@OOooXXXXXXXXXXooO@@@     ",
"     @@OOOoXXXXXXXXXoooO@@@     ",
"     @@OOOoooXXXXXXooooO@@      ",
"     @@@OOoooooooooooOO@@@      ",
"     @@@OOOOOooooooooOO@@       ",
"     @@@@OOOOOOOOOOOOO@@        ",
"      @@@@OOOOOOOOOO@@@         ",
"        @@@@@@@@@@@@@@          ",
"                                ",
"                                ",
"                                ",
"                                "
};
