/* XPM */
static char *ghost_right1730747685[] = {
/* columns rows colors chars-per-pixel */
"32 32 3 1 ",
"  c black",
". c magenta",
"X c white",
/* pixels */
"                                ",
"                                ",
"                                ",
"                                ",
"                                ",
"                                ",
"               .......          ",
"            ............        ",
"          ..............        ",
"        ................        ",
"        ...XXX...........       ",
"       ...XXXXX...XXXX...       ",
"       ...XXX  ...XXXX...       ",
"       ...XXX  ...XXX  ..       ",
"      ....XXXXX...XXX  ..       ",
"      ....XXXX....XXXXX..       ",
"      .....XX.....XXXX...       ",
"      ...................       ",
"     ....................       ",
"     ....................       ",
"     ....................       ",
"     ...................        ",
"     ...................        ",
"     ...................        ",
"     ...................        ",
"     ...................        ",
"         ...............        ",
"         ......  .......        ",
"         .....    .....         ",
"                                ",
"                                ",
"                                "
};
