/* XPM */
static char *ghost_up1730747685[] = {
/* columns rows colors chars-per-pixel */
"32 32 3 1 ",
"  c black",
". c magenta",
"X c white",
/* pixels */
"                                ",
"                                ",
"                                ",
"                                ",
"          .........             ",
"         ..............         ",
"        ................        ",
"        .X  X....X  X...        ",
"       ..X  X....X  X....       ",
"       ..XXXX....X  X....       ",
"      ...XXXX....XXXX...        ",
"      ...XXXX....XXX....        ",
"      ...........XXX....        ",
"      ..................        ",
"      ..................        ",
"     ...................        ",
"     ...................        ",
"     ..................         ",
"     ..................         ",
"     ..................         ",
"     .................          ",
"     .................          ",
"     .................          ",
"      ................          ",
"       ...............          ",
"       ...............          ",
"       ...............          ",
"       ..............           ",
"       ...   ...   ..           ",
"                                ",
"                                ",
"                                "
};
